<mxfile host="app.diagrams.net" modified="2023-09-10T17:37:48.425Z" agent="Mozilla/5.0 (Windows NT 10.0; Win64; x64) AppleWebKit/537.36 (KHTML, like Gecko) Chrome/116.0.0.0 Safari/537.36" etag="0hElSiV5e3evzeaCGgKg" version="21.7.4" type="device">
  <diagram id="C5RBs43oDa-KdzZeNtuy" name="Page-1">
    <mxGraphModel dx="1493" dy="640" grid="1" gridSize="10" guides="1" tooltips="1" connect="1" arrows="1" fold="1" page="1" pageScale="1" pageWidth="827" pageHeight="1169" math="0" shadow="0">
      <root>
        <mxCell id="WIyWlLk6GJQsqaUBKTNV-0" />
        <mxCell id="WIyWlLk6GJQsqaUBKTNV-1" parent="WIyWlLk6GJQsqaUBKTNV-0" />
        <mxCell id="7I8WZK7cO3IiVVHnGnqm-39" value="Asansor" style="swimlane;fontStyle=0;align=center;verticalAlign=top;childLayout=stackLayout;horizontal=1;startSize=26;horizontalStack=0;resizeParent=1;resizeLast=0;collapsible=1;marginBottom=0;rounded=0;shadow=0;strokeWidth=1;" vertex="1" parent="WIyWlLk6GJQsqaUBKTNV-1">
          <mxGeometry x="334" y="130" width="336" height="200" as="geometry">
            <mxRectangle x="130" y="380" width="160" height="26" as="alternateBounds" />
          </mxGeometry>
        </mxCell>
        <mxCell id="7I8WZK7cO3IiVVHnGnqm-42" value="- id: int" style="text;html=1;align=center;verticalAlign=middle;resizable=0;points=[];autosize=1;strokeColor=none;fillColor=none;" vertex="1" parent="7I8WZK7cO3IiVVHnGnqm-39">
          <mxGeometry y="26" width="336" height="30" as="geometry" />
        </mxCell>
        <mxCell id="7I8WZK7cO3IiVVHnGnqm-43" value="+ kapasite: int = 6" style="text;html=1;align=center;verticalAlign=middle;resizable=0;points=[];autosize=1;strokeColor=none;fillColor=none;" vertex="1" parent="7I8WZK7cO3IiVVHnGnqm-39">
          <mxGeometry y="56" width="336" height="30" as="geometry" />
        </mxCell>
        <mxCell id="7I8WZK7cO3IiVVHnGnqm-64" value="+ bulunduguKat: int" style="text;html=1;align=center;verticalAlign=middle;resizable=0;points=[];autosize=1;strokeColor=none;fillColor=none;" vertex="1" parent="7I8WZK7cO3IiVVHnGnqm-39">
          <mxGeometry y="86" width="336" height="30" as="geometry" />
        </mxCell>
        <mxCell id="7I8WZK7cO3IiVVHnGnqm-40" value="" style="line;html=1;strokeWidth=1;align=left;verticalAlign=middle;spacingTop=-1;spacingLeft=3;spacingRight=3;rotatable=0;labelPosition=right;points=[];portConstraint=eastwest;" vertex="1" parent="7I8WZK7cO3IiVVHnGnqm-39">
          <mxGeometry y="116" width="336" height="50" as="geometry" />
        </mxCell>
        <mxCell id="7I8WZK7cO3IiVVHnGnqm-65" value="+ enerjiTasarrufu ()" style="text;html=1;align=center;verticalAlign=middle;resizable=0;points=[];autosize=1;strokeColor=none;fillColor=none;" vertex="1" parent="7I8WZK7cO3IiVVHnGnqm-39">
          <mxGeometry y="166" width="336" height="30" as="geometry" />
        </mxCell>
        <mxCell id="7I8WZK7cO3IiVVHnGnqm-147" style="edgeStyle=orthogonalEdgeStyle;rounded=0;orthogonalLoop=1;jettySize=auto;html=1;entryX=0.995;entryY=0.531;entryDx=0;entryDy=0;entryPerimeter=0;" edge="1" parent="WIyWlLk6GJQsqaUBKTNV-1" source="7I8WZK7cO3IiVVHnGnqm-68" target="7I8WZK7cO3IiVVHnGnqm-40">
          <mxGeometry relative="1" as="geometry" />
        </mxCell>
        <mxCell id="7I8WZK7cO3IiVVHnGnqm-68" value="KontrolPaneli" style="swimlane;fontStyle=0;align=center;verticalAlign=top;childLayout=stackLayout;horizontal=1;startSize=26;horizontalStack=0;resizeParent=1;resizeLast=0;collapsible=1;marginBottom=0;rounded=0;shadow=0;strokeWidth=1;" vertex="1" parent="WIyWlLk6GJQsqaUBKTNV-1">
          <mxGeometry x="700" y="320" width="165" height="180" as="geometry">
            <mxRectangle x="130" y="380" width="160" height="26" as="alternateBounds" />
          </mxGeometry>
        </mxCell>
        <mxCell id="7I8WZK7cO3IiVVHnGnqm-72" value="" style="line;html=1;strokeWidth=1;align=left;verticalAlign=middle;spacingTop=-1;spacingLeft=3;spacingRight=3;rotatable=0;labelPosition=right;points=[];portConstraint=eastwest;" vertex="1" parent="7I8WZK7cO3IiVVHnGnqm-68">
          <mxGeometry y="26" width="165" height="50" as="geometry" />
        </mxCell>
        <mxCell id="7I8WZK7cO3IiVVHnGnqm-170" value="+ asansorCagirmaZili ()" style="text;html=1;align=center;verticalAlign=middle;resizable=0;points=[];autosize=1;strokeColor=none;fillColor=none;" vertex="1" parent="7I8WZK7cO3IiVVHnGnqm-68">
          <mxGeometry y="76" width="165" height="30" as="geometry" />
        </mxCell>
        <mxCell id="7I8WZK7cO3IiVVHnGnqm-171" value="+ isik ()" style="text;html=1;align=center;verticalAlign=middle;resizable=0;points=[];autosize=1;strokeColor=none;fillColor=none;" vertex="1" parent="7I8WZK7cO3IiVVHnGnqm-68">
          <mxGeometry y="106" width="165" height="30" as="geometry" />
        </mxCell>
        <mxCell id="7I8WZK7cO3IiVVHnGnqm-172" value="+ tasinabilirAgirlikKontrol ()" style="text;html=1;align=center;verticalAlign=middle;resizable=0;points=[];autosize=1;strokeColor=none;fillColor=none;" vertex="1" parent="7I8WZK7cO3IiVVHnGnqm-68">
          <mxGeometry y="136" width="165" height="30" as="geometry" />
        </mxCell>
        <mxCell id="7I8WZK7cO3IiVVHnGnqm-146" style="edgeStyle=orthogonalEdgeStyle;rounded=0;orthogonalLoop=1;jettySize=auto;html=1;entryX=0;entryY=0.598;entryDx=0;entryDy=0;entryPerimeter=0;" edge="1" parent="WIyWlLk6GJQsqaUBKTNV-1" source="7I8WZK7cO3IiVVHnGnqm-84" target="7I8WZK7cO3IiVVHnGnqm-40">
          <mxGeometry relative="1" as="geometry" />
        </mxCell>
        <mxCell id="7I8WZK7cO3IiVVHnGnqm-84" value="AsansorUygulamasi" style="swimlane;fontStyle=0;align=center;verticalAlign=top;childLayout=stackLayout;horizontal=1;startSize=26;horizontalStack=0;resizeParent=1;resizeLast=0;collapsible=1;marginBottom=0;rounded=0;shadow=0;strokeWidth=1;" vertex="1" parent="WIyWlLk6GJQsqaUBKTNV-1">
          <mxGeometry x="160" y="320" width="160" height="180" as="geometry">
            <mxRectangle x="130" y="380" width="160" height="26" as="alternateBounds" />
          </mxGeometry>
        </mxCell>
        <mxCell id="7I8WZK7cO3IiVVHnGnqm-88" value="" style="line;html=1;strokeWidth=1;align=left;verticalAlign=middle;spacingTop=-1;spacingLeft=3;spacingRight=3;rotatable=0;labelPosition=right;points=[];portConstraint=eastwest;" vertex="1" parent="7I8WZK7cO3IiVVHnGnqm-84">
          <mxGeometry y="26" width="160" height="50" as="geometry" />
        </mxCell>
        <mxCell id="7I8WZK7cO3IiVVHnGnqm-89" value="+ asasorKonumu ()" style="text;html=1;align=center;verticalAlign=middle;resizable=0;points=[];autosize=1;strokeColor=none;fillColor=none;" vertex="1" parent="7I8WZK7cO3IiVVHnGnqm-84">
          <mxGeometry y="76" width="160" height="30" as="geometry" />
        </mxCell>
        <mxCell id="7I8WZK7cO3IiVVHnGnqm-128" value="+ asansorCagir ()" style="text;html=1;align=center;verticalAlign=middle;resizable=0;points=[];autosize=1;strokeColor=none;fillColor=none;" vertex="1" parent="7I8WZK7cO3IiVVHnGnqm-84">
          <mxGeometry y="106" width="160" height="30" as="geometry" />
        </mxCell>
        <mxCell id="7I8WZK7cO3IiVVHnGnqm-179" value="+ kataAsansorGonder ()" style="text;html=1;align=center;verticalAlign=middle;resizable=0;points=[];autosize=1;strokeColor=none;fillColor=none;" vertex="1" parent="7I8WZK7cO3IiVVHnGnqm-84">
          <mxGeometry y="136" width="160" height="30" as="geometry" />
        </mxCell>
        <mxCell id="7I8WZK7cO3IiVVHnGnqm-130" value="Yolcu" style="swimlane;fontStyle=0;align=center;verticalAlign=top;childLayout=stackLayout;horizontal=1;startSize=26;horizontalStack=0;resizeParent=1;resizeLast=0;collapsible=1;marginBottom=0;rounded=0;shadow=0;strokeWidth=1;" vertex="1" parent="WIyWlLk6GJQsqaUBKTNV-1">
          <mxGeometry x="160" y="550" width="165" height="150" as="geometry">
            <mxRectangle x="130" y="380" width="160" height="26" as="alternateBounds" />
          </mxGeometry>
        </mxCell>
        <mxCell id="7I8WZK7cO3IiVVHnGnqm-131" value="- yolcuId: int" style="text;html=1;align=center;verticalAlign=middle;resizable=0;points=[];autosize=1;strokeColor=none;fillColor=none;" vertex="1" parent="7I8WZK7cO3IiVVHnGnqm-130">
          <mxGeometry y="26" width="165" height="30" as="geometry" />
        </mxCell>
        <mxCell id="7I8WZK7cO3IiVVHnGnqm-185" value="- bulunduguKat: int" style="text;html=1;align=center;verticalAlign=middle;resizable=0;points=[];autosize=1;strokeColor=none;fillColor=none;" vertex="1" parent="7I8WZK7cO3IiVVHnGnqm-130">
          <mxGeometry y="56" width="165" height="30" as="geometry" />
        </mxCell>
        <mxCell id="7I8WZK7cO3IiVVHnGnqm-184" value="- gidilecekKat: int" style="text;html=1;align=center;verticalAlign=middle;resizable=0;points=[];autosize=1;strokeColor=none;fillColor=none;" vertex="1" parent="7I8WZK7cO3IiVVHnGnqm-130">
          <mxGeometry y="86" width="165" height="30" as="geometry" />
        </mxCell>
        <mxCell id="7I8WZK7cO3IiVVHnGnqm-132" value="" style="line;html=1;strokeWidth=1;align=left;verticalAlign=middle;spacingTop=-1;spacingLeft=3;spacingRight=3;rotatable=0;labelPosition=right;points=[];portConstraint=eastwest;" vertex="1" parent="7I8WZK7cO3IiVVHnGnqm-130">
          <mxGeometry y="116" width="165" height="34" as="geometry" />
        </mxCell>
        <mxCell id="7I8WZK7cO3IiVVHnGnqm-143" style="edgeStyle=orthogonalEdgeStyle;rounded=0;orthogonalLoop=1;jettySize=auto;html=1;entryX=1;entryY=0.5;entryDx=0;entryDy=0;exitX=0.5;exitY=0;exitDx=0;exitDy=0;" edge="1" parent="WIyWlLk6GJQsqaUBKTNV-1" source="7I8WZK7cO3IiVVHnGnqm-135" target="7I8WZK7cO3IiVVHnGnqm-84">
          <mxGeometry relative="1" as="geometry">
            <mxPoint x="442.5" y="540" as="targetPoint" />
          </mxGeometry>
        </mxCell>
        <mxCell id="7I8WZK7cO3IiVVHnGnqm-135" value="Simulasyon" style="swimlane;fontStyle=0;align=center;verticalAlign=top;childLayout=stackLayout;horizontal=1;startSize=26;horizontalStack=0;resizeParent=1;resizeLast=0;collapsible=1;marginBottom=0;rounded=0;shadow=0;strokeWidth=1;" vertex="1" parent="WIyWlLk6GJQsqaUBKTNV-1">
          <mxGeometry x="360" y="480" width="165" height="180" as="geometry">
            <mxRectangle x="130" y="380" width="160" height="26" as="alternateBounds" />
          </mxGeometry>
        </mxCell>
        <mxCell id="7I8WZK7cO3IiVVHnGnqm-137" value="" style="line;html=1;strokeWidth=1;align=left;verticalAlign=middle;spacingTop=-1;spacingLeft=3;spacingRight=3;rotatable=0;labelPosition=right;points=[];portConstraint=eastwest;" vertex="1" parent="7I8WZK7cO3IiVVHnGnqm-135">
          <mxGeometry y="26" width="165" height="34" as="geometry" />
        </mxCell>
        <mxCell id="7I8WZK7cO3IiVVHnGnqm-182" value="+ kayıt ()" style="text;html=1;align=center;verticalAlign=middle;resizable=0;points=[];autosize=1;strokeColor=none;fillColor=none;" vertex="1" parent="7I8WZK7cO3IiVVHnGnqm-135">
          <mxGeometry y="60" width="165" height="30" as="geometry" />
        </mxCell>
        <mxCell id="7I8WZK7cO3IiVVHnGnqm-138" value="+ zamanTutucu ()" style="text;html=1;align=center;verticalAlign=middle;resizable=0;points=[];autosize=1;strokeColor=none;fillColor=none;" vertex="1" parent="7I8WZK7cO3IiVVHnGnqm-135">
          <mxGeometry y="90" width="165" height="30" as="geometry" />
        </mxCell>
        <mxCell id="7I8WZK7cO3IiVVHnGnqm-180" value="+ yolcuOlustur ()" style="text;html=1;align=center;verticalAlign=middle;resizable=0;points=[];autosize=1;strokeColor=none;fillColor=none;" vertex="1" parent="7I8WZK7cO3IiVVHnGnqm-135">
          <mxGeometry y="120" width="165" height="30" as="geometry" />
        </mxCell>
        <mxCell id="7I8WZK7cO3IiVVHnGnqm-181" value="+ rastgeleDagitici ()" style="text;html=1;align=center;verticalAlign=middle;resizable=0;points=[];autosize=1;strokeColor=none;fillColor=none;" vertex="1" parent="7I8WZK7cO3IiVVHnGnqm-135">
          <mxGeometry y="150" width="165" height="30" as="geometry" />
        </mxCell>
        <mxCell id="7I8WZK7cO3IiVVHnGnqm-144" value="" style="endArrow=classic;html=1;rounded=0;exitX=0.5;exitY=0;exitDx=0;exitDy=0;entryX=0;entryY=0.25;entryDx=0;entryDy=0;" edge="1" parent="WIyWlLk6GJQsqaUBKTNV-1" source="7I8WZK7cO3IiVVHnGnqm-130" target="7I8WZK7cO3IiVVHnGnqm-135">
          <mxGeometry width="50" height="50" relative="1" as="geometry">
            <mxPoint x="380" y="730" as="sourcePoint" />
            <mxPoint x="240" y="510" as="targetPoint" />
            <Array as="points">
              <mxPoint x="243" y="525" />
            </Array>
          </mxGeometry>
        </mxCell>
        <mxCell id="7I8WZK7cO3IiVVHnGnqm-148" value="KatKontrolPaneli" style="swimlane;fontStyle=0;align=center;verticalAlign=top;childLayout=stackLayout;horizontal=1;startSize=26;horizontalStack=0;resizeParent=1;resizeLast=0;collapsible=1;marginBottom=0;rounded=0;shadow=0;strokeWidth=1;" vertex="1" parent="WIyWlLk6GJQsqaUBKTNV-1">
          <mxGeometry x="580" y="585" width="165" height="180" as="geometry">
            <mxRectangle x="130" y="380" width="160" height="26" as="alternateBounds" />
          </mxGeometry>
        </mxCell>
        <mxCell id="7I8WZK7cO3IiVVHnGnqm-150" value="" style="line;html=1;strokeWidth=1;align=left;verticalAlign=middle;spacingTop=-1;spacingLeft=3;spacingRight=3;rotatable=0;labelPosition=right;points=[];portConstraint=eastwest;" vertex="1" parent="7I8WZK7cO3IiVVHnGnqm-148">
          <mxGeometry y="26" width="165" height="34" as="geometry" />
        </mxCell>
        <mxCell id="7I8WZK7cO3IiVVHnGnqm-151" value="+ yukari ()" style="text;html=1;align=center;verticalAlign=middle;resizable=0;points=[];autosize=1;strokeColor=none;fillColor=none;" vertex="1" parent="7I8WZK7cO3IiVVHnGnqm-148">
          <mxGeometry y="60" width="165" height="30" as="geometry" />
        </mxCell>
        <mxCell id="7I8WZK7cO3IiVVHnGnqm-168" value="+ asagi ()" style="text;html=1;align=center;verticalAlign=middle;resizable=0;points=[];autosize=1;strokeColor=none;fillColor=none;" vertex="1" parent="7I8WZK7cO3IiVVHnGnqm-148">
          <mxGeometry y="90" width="165" height="30" as="geometry" />
        </mxCell>
        <mxCell id="7I8WZK7cO3IiVVHnGnqm-169" value="+ asansorCagirmaZili ()" style="text;html=1;align=center;verticalAlign=middle;resizable=0;points=[];autosize=1;strokeColor=none;fillColor=none;" vertex="1" parent="7I8WZK7cO3IiVVHnGnqm-148">
          <mxGeometry y="120" width="165" height="30" as="geometry" />
        </mxCell>
        <mxCell id="7I8WZK7cO3IiVVHnGnqm-152" value="AsansorKontrrolPaneli" style="swimlane;fontStyle=0;align=center;verticalAlign=top;childLayout=stackLayout;horizontal=1;startSize=26;horizontalStack=0;resizeParent=1;resizeLast=0;collapsible=1;marginBottom=0;rounded=0;shadow=0;strokeWidth=1;" vertex="1" parent="WIyWlLk6GJQsqaUBKTNV-1">
          <mxGeometry x="810" y="590" width="165" height="180" as="geometry">
            <mxRectangle x="130" y="380" width="160" height="26" as="alternateBounds" />
          </mxGeometry>
        </mxCell>
        <mxCell id="7I8WZK7cO3IiVVHnGnqm-154" value="" style="line;html=1;strokeWidth=1;align=left;verticalAlign=middle;spacingTop=-1;spacingLeft=3;spacingRight=3;rotatable=0;labelPosition=right;points=[];portConstraint=eastwest;" vertex="1" parent="7I8WZK7cO3IiVVHnGnqm-152">
          <mxGeometry y="26" width="165" height="34" as="geometry" />
        </mxCell>
        <mxCell id="7I8WZK7cO3IiVVHnGnqm-165" value="+ kapiAcma ()" style="text;html=1;align=center;verticalAlign=middle;resizable=0;points=[];autosize=1;strokeColor=none;fillColor=none;" vertex="1" parent="7I8WZK7cO3IiVVHnGnqm-152">
          <mxGeometry y="60" width="165" height="30" as="geometry" />
        </mxCell>
        <mxCell id="7I8WZK7cO3IiVVHnGnqm-166" value="+ kapiKapama ()" style="text;html=1;align=center;verticalAlign=middle;resizable=0;points=[];autosize=1;strokeColor=none;fillColor=none;" vertex="1" parent="7I8WZK7cO3IiVVHnGnqm-152">
          <mxGeometry y="90" width="165" height="30" as="geometry" />
        </mxCell>
        <mxCell id="7I8WZK7cO3IiVVHnGnqm-167" value="+ AcilDurumDugmesi ()" style="text;html=1;align=center;verticalAlign=middle;resizable=0;points=[];autosize=1;strokeColor=none;fillColor=none;" vertex="1" parent="7I8WZK7cO3IiVVHnGnqm-152">
          <mxGeometry y="120" width="165" height="30" as="geometry" />
        </mxCell>
        <mxCell id="7I8WZK7cO3IiVVHnGnqm-157" value="" style="endArrow=classic;html=1;rounded=0;exitX=0.5;exitY=0;exitDx=0;exitDy=0;entryX=0.5;entryY=1;entryDx=0;entryDy=0;" edge="1" parent="WIyWlLk6GJQsqaUBKTNV-1" source="7I8WZK7cO3IiVVHnGnqm-148" target="7I8WZK7cO3IiVVHnGnqm-68">
          <mxGeometry width="50" height="50" relative="1" as="geometry">
            <mxPoint x="650" y="680" as="sourcePoint" />
            <mxPoint x="700" y="630" as="targetPoint" />
            <Array as="points">
              <mxPoint x="663" y="560" />
              <mxPoint x="783" y="560" />
            </Array>
          </mxGeometry>
        </mxCell>
        <mxCell id="7I8WZK7cO3IiVVHnGnqm-158" value="" style="endArrow=classic;html=1;rounded=0;exitX=0.5;exitY=0;exitDx=0;exitDy=0;entryX=0.5;entryY=1;entryDx=0;entryDy=0;" edge="1" parent="WIyWlLk6GJQsqaUBKTNV-1" source="7I8WZK7cO3IiVVHnGnqm-152" target="7I8WZK7cO3IiVVHnGnqm-68">
          <mxGeometry width="50" height="50" relative="1" as="geometry">
            <mxPoint x="650" y="680" as="sourcePoint" />
            <mxPoint x="700" y="630" as="targetPoint" />
            <Array as="points">
              <mxPoint x="893" y="560" />
              <mxPoint x="850" y="560" />
              <mxPoint x="783" y="560" />
            </Array>
          </mxGeometry>
        </mxCell>
      </root>
    </mxGraphModel>
  </diagram>
</mxfile>
